<?xml version="1.0" encoding="UTF-8" standalone="no"?>
<!DOCTYPE svg PUBLIC "-//W3C//DTD SVG 1.1//EN"
 "http://www.w3.org/Graphics/SVG/1.1/DTD/svg11.dtd">
<!-- Generated by graphviz version 2.46.0 (20210119.1425)
 -->
<!-- Title: dependencies Pages: 1 -->
<svg width="509pt" height="211pt"
 viewBox="0.00 0.00 509.00 211.00" xmlns="http://www.w3.org/2000/svg" xmlns:xlink="http://www.w3.org/1999/xlink">
<g id="graph0" class="graph" transform="scale(1 1) rotate(0) translate(4 207)">
<title>dependencies</title>
<polygon fill="white" stroke="transparent" points="-4,4 -4,-207 505,-207 505,4 -4,4"/>
<text text-anchor="start" x="229.51" y="-42.4" font-family="sans-serif" font-weight="bold" font-size="14.00">Legend</text>
<polygon fill="#ffffb3" stroke="transparent" points="16.5,-10 16.5,-30 36.5,-30 36.5,-10 16.5,-10"/>
<text text-anchor="start" x="40.13" y="-15.4" font-family="sans-serif" font-size="14.00"> &#160;Declarations</text>
<polygon fill="#8dd3c7" stroke="transparent" points="129.5,-10 129.5,-30 149.5,-30 149.5,-10 129.5,-10"/>
<text text-anchor="start" x="153.23" y="-15.4" font-family="sans-serif" font-size="14.00"> &#160;Module</text>
<polygon fill="#80b1d3" stroke="transparent" points="215.5,-10 215.5,-30 235.5,-30 235.5,-10 215.5,-10"/>
<text text-anchor="start" x="239.28" y="-15.4" font-family="sans-serif" font-size="14.00"> &#160;Bootstrap</text>
<polygon fill="#fdb462" stroke="transparent" points="312.5,-10 312.5,-30 332.5,-30 332.5,-10 312.5,-10"/>
<text text-anchor="start" x="336.17" y="-15.4" font-family="sans-serif" font-size="14.00"> &#160;Providers</text>
<polygon fill="#fb8072" stroke="transparent" points="408.5,-10 408.5,-30 428.5,-30 428.5,-10 408.5,-10"/>
<text text-anchor="start" x="432.23" y="-15.4" font-family="sans-serif" font-size="14.00"> &#160;Exports</text>
<g id="clust1" class="cluster">
<title>cluster_EditionModule</title>
<polygon fill="none" stroke="black" stroke-dasharray="1,5" points="8,-70 8,-195 493,-195 493,-70 8,-70"/>
</g>
<g id="clust2" class="cluster">
<title>cluster_EditionModule_declarations</title>
<polygon fill="none" stroke="black" points="186,-78 186,-130 485,-130 485,-78 186,-78"/>
</g>
<g id="clust5" class="cluster">
<title>cluster_EditionModule_imports</title>
<polygon fill="none" stroke="black" points="16,-78 16,-130 178,-130 178,-78 16,-78"/>
</g>
<!-- AccueilComponent -->
<g id="node1" class="node">
<title>AccueilComponent</title>
<polygon fill="#ffffb3" stroke="black" points="477.36,-122 352.64,-122 352.64,-86 477.36,-86 477.36,-122"/>
<text text-anchor="middle" x="415" y="-99.8" font-family="Times,serif" font-size="14.00">AccueilComponent</text>
</g>
<!-- EditionModule -->
<g id="node3" class="node">
<title>EditionModule</title>
<polygon fill="#8dd3c7" stroke="black" points="314.27,-187 311.27,-191 290.27,-191 287.27,-187 213.73,-187 213.73,-151 314.27,-151 314.27,-187"/>
<text text-anchor="middle" x="264" y="-164.8" font-family="Times,serif" font-size="14.00">EditionModule</text>
</g>
<!-- AccueilComponent&#45;&gt;EditionModule -->
<g id="edge1" class="edge">
<title>AccueilComponent&#45;&gt;EditionModule</title>
<path fill="none" stroke="black" d="M415,-122.11C415,-141.34 415,-169 415,-169 415,-169 324.28,-169 324.28,-169"/>
<polygon fill="black" stroke="black" points="324.28,-165.5 314.28,-169 324.28,-172.5 324.28,-165.5"/>
</g>
<!-- UtilisateurComponent -->
<g id="node2" class="node">
<title>UtilisateurComponent</title>
<polygon fill="#ffffb3" stroke="black" points="334.43,-122 193.57,-122 193.57,-86 334.43,-86 334.43,-122"/>
<text text-anchor="middle" x="264" y="-99.8" font-family="Times,serif" font-size="14.00">UtilisateurComponent</text>
</g>
<!-- UtilisateurComponent&#45;&gt;EditionModule -->
<g id="edge2" class="edge">
<title>UtilisateurComponent&#45;&gt;EditionModule</title>
<path fill="none" stroke="black" d="M264,-122.11C264,-122.11 264,-140.99 264,-140.99"/>
<polygon fill="black" stroke="black" points="260.5,-140.99 264,-150.99 267.5,-140.99 260.5,-140.99"/>
</g>
<!-- EditionRoutingModule -->
<g id="node4" class="node">
<title>EditionRoutingModule</title>
<polygon fill="#8dd3c7" stroke="black" points="169.89,-122 166.89,-126 145.89,-126 142.89,-122 24.11,-122 24.11,-86 169.89,-86 169.89,-122"/>
<text text-anchor="middle" x="97" y="-99.8" font-family="Times,serif" font-size="14.00">EditionRoutingModule</text>
</g>
<!-- EditionRoutingModule&#45;&gt;EditionModule -->
<g id="edge3" class="edge">
<title>EditionRoutingModule&#45;&gt;EditionModule</title>
<path fill="none" stroke="black" d="M97,-122.11C97,-141.34 97,-169 97,-169 97,-169 203.44,-169 203.44,-169"/>
<polygon fill="black" stroke="black" points="203.44,-172.5 213.44,-169 203.44,-165.5 203.44,-172.5"/>
</g>
</g>
</svg>
