<?xml version="1.0" encoding="UTF-8" standalone="no"?>
<!DOCTYPE svg PUBLIC "-//W3C//DTD SVG 1.1//EN"
 "http://www.w3.org/Graphics/SVG/1.1/DTD/svg11.dtd">
<!-- Generated by graphviz version 2.46.0 (20210119.1425)
 -->
<!-- Title: dependencies Pages: 1 -->
<svg width="2147pt" height="284pt"
 viewBox="0.00 0.00 2147.00 284.00" xmlns="http://www.w3.org/2000/svg" xmlns:xlink="http://www.w3.org/1999/xlink">
<g id="graph0" class="graph" transform="scale(1 1) rotate(0) translate(4 280)">
<title>dependencies</title>
<polygon fill="white" stroke="transparent" points="-4,4 -4,-280 2143,-280 2143,4 -4,4"/>
<text text-anchor="start" x="1048.51" y="-42.4" font-family="sans-serif" font-weight="bold" font-size="14.00">Legend</text>
<polygon fill="#ffffb3" stroke="transparent" points="835.5,-10 835.5,-30 855.5,-30 855.5,-10 835.5,-10"/>
<text text-anchor="start" x="859.13" y="-15.4" font-family="sans-serif" font-size="14.00"> &#160;Declarations</text>
<polygon fill="#8dd3c7" stroke="transparent" points="948.5,-10 948.5,-30 968.5,-30 968.5,-10 948.5,-10"/>
<text text-anchor="start" x="972.23" y="-15.4" font-family="sans-serif" font-size="14.00"> &#160;Module</text>
<polygon fill="#80b1d3" stroke="transparent" points="1034.5,-10 1034.5,-30 1054.5,-30 1054.5,-10 1034.5,-10"/>
<text text-anchor="start" x="1058.28" y="-15.4" font-family="sans-serif" font-size="14.00"> &#160;Bootstrap</text>
<polygon fill="#fdb462" stroke="transparent" points="1131.5,-10 1131.5,-30 1151.5,-30 1151.5,-10 1131.5,-10"/>
<text text-anchor="start" x="1155.17" y="-15.4" font-family="sans-serif" font-size="14.00"> &#160;Providers</text>
<polygon fill="#fb8072" stroke="transparent" points="1227.5,-10 1227.5,-30 1247.5,-30 1247.5,-10 1227.5,-10"/>
<text text-anchor="start" x="1251.23" y="-15.4" font-family="sans-serif" font-size="14.00"> &#160;Exports</text>
<g id="clust1" class="cluster">
<title>cluster_AppModule</title>
<polygon fill="none" stroke="black" stroke-dasharray="1,5" points="8,-70 8,-268 2131,-268 2131,-70 8,-70"/>
</g>
<g id="clust2" class="cluster">
<title>cluster_AppModule_declarations</title>
<polygon fill="none" stroke="black" points="711,-78 711,-130 2123,-130 2123,-78 711,-78"/>
</g>
<g id="clust16" class="cluster">
<title>cluster_AppModule_providers</title>
<polygon fill="none" stroke="black" points="168,-78 168,-130 703,-130 703,-78 168,-78"/>
</g>
<g id="clust15" class="cluster">
<title>cluster_AppModule_bootstrap</title>
<polygon fill="none" stroke="black" points="1065,-208 1065,-260 1189,-260 1189,-208 1065,-208"/>
</g>
<g id="clust13" class="cluster">
<title>cluster_AppModule_imports</title>
<polygon fill="none" stroke="black" points="16,-78 16,-130 160,-130 160,-78 16,-78"/>
</g>
<!-- AccueilComponent -->
<g id="node1" class="node">
<title>AccueilComponent</title>
<polygon fill="#ffffb3" stroke="black" points="2115.36,-122 1990.64,-122 1990.64,-86 2115.36,-86 2115.36,-122"/>
<text text-anchor="middle" x="2053" y="-99.8" font-family="Times,serif" font-size="14.00">AccueilComponent</text>
</g>
<!-- AppModule -->
<g id="node11" class="node">
<title>AppModule</title>
<polygon fill="#8dd3c7" stroke="black" points="1168.66,-187 1165.66,-191 1144.66,-191 1141.66,-187 1085.34,-187 1085.34,-151 1168.66,-151 1168.66,-187"/>
<text text-anchor="middle" x="1127" y="-164.8" font-family="Times,serif" font-size="14.00">AppModule</text>
</g>
<!-- AccueilComponent&#45;&gt;AppModule -->
<g id="edge1" class="edge">
<title>AccueilComponent&#45;&gt;AppModule</title>
<path fill="none" stroke="black" d="M2053,-122.09C2053,-145.13 2053,-182 2053,-182 2053,-182 1178.89,-182 1178.89,-182"/>
<polygon fill="black" stroke="black" points="1178.89,-178.5 1168.89,-182 1178.89,-185.5 1178.89,-178.5"/>
</g>
<!-- AppComponent -->
<g id="node2" class="node">
<title>AppComponent</title>
<polygon fill="#ffffb3" stroke="black" points="1972.94,-122 1867.06,-122 1867.06,-86 1972.94,-86 1972.94,-122"/>
<text text-anchor="middle" x="1920" y="-99.8" font-family="Times,serif" font-size="14.00">AppComponent</text>
</g>
<!-- AppComponent&#45;&gt;AppModule -->
<g id="edge2" class="edge">
<title>AppComponent&#45;&gt;AppModule</title>
<path fill="none" stroke="black" d="M1920,-122.04C1920,-143.66 1920,-177 1920,-177 1920,-177 1178.8,-177 1178.8,-177"/>
<polygon fill="black" stroke="black" points="1178.8,-173.5 1168.8,-177 1178.8,-180.5 1178.8,-173.5"/>
</g>
<!-- ConnexionComponent -->
<g id="node3" class="node">
<title>ConnexionComponent</title>
<polygon fill="#ffffb3" stroke="black" points="1849.27,-122 1706.73,-122 1706.73,-86 1849.27,-86 1849.27,-122"/>
<text text-anchor="middle" x="1778" y="-99.8" font-family="Times,serif" font-size="14.00">ConnexionComponent</text>
</g>
<!-- ConnexionComponent&#45;&gt;AppModule -->
<g id="edge3" class="edge">
<title>ConnexionComponent&#45;&gt;AppModule</title>
<path fill="none" stroke="black" d="M1778,-122.22C1778,-142.37 1778,-172 1778,-172 1778,-172 1178.71,-172 1178.71,-172"/>
<polygon fill="black" stroke="black" points="1178.71,-168.5 1168.71,-172 1178.71,-175.5 1178.71,-168.5"/>
</g>
<!-- ContactComponent -->
<g id="node4" class="node">
<title>ContactComponent</title>
<polygon fill="#ffffb3" stroke="black" points="1688.38,-122 1563.62,-122 1563.62,-86 1688.38,-86 1688.38,-122"/>
<text text-anchor="middle" x="1626" y="-99.8" font-family="Times,serif" font-size="14.00">ContactComponent</text>
</g>
<!-- ContactComponent&#45;&gt;AppModule -->
<g id="edge4" class="edge">
<title>ContactComponent&#45;&gt;AppModule</title>
<path fill="none" stroke="black" d="M1626,-122.22C1626,-140.83 1626,-167 1626,-167 1626,-167 1178.69,-167 1178.69,-167"/>
<polygon fill="black" stroke="black" points="1178.69,-163.5 1168.69,-167 1178.69,-170.5 1178.69,-163.5"/>
</g>
<!-- Erreur404Component -->
<g id="node5" class="node">
<title>Erreur404Component</title>
<polygon fill="#ffffb3" stroke="black" points="1546.08,-122 1407.92,-122 1407.92,-86 1546.08,-86 1546.08,-122"/>
<text text-anchor="middle" x="1477" y="-99.8" font-family="Times,serif" font-size="14.00">Erreur404Component</text>
</g>
<!-- Erreur404Component&#45;&gt;AppModule -->
<g id="edge5" class="edge">
<title>Erreur404Component&#45;&gt;AppModule</title>
<path fill="none" stroke="black" d="M1477,-122.03C1477,-139.06 1477,-162 1477,-162 1477,-162 1178.87,-162 1178.87,-162"/>
<polygon fill="black" stroke="black" points="1178.87,-158.5 1168.87,-162 1178.87,-165.5 1178.87,-158.5"/>
</g>
<!-- EtudiantComponent -->
<g id="node6" class="node">
<title>EtudiantComponent</title>
<polygon fill="#ffffb3" stroke="black" points="1390.27,-122 1261.73,-122 1261.73,-86 1390.27,-86 1390.27,-122"/>
<text text-anchor="middle" x="1326" y="-99.8" font-family="Times,serif" font-size="14.00">EtudiantComponent</text>
</g>
<!-- EtudiantComponent&#45;&gt;AppModule -->
<g id="edge6" class="edge">
<title>EtudiantComponent&#45;&gt;AppModule</title>
<path fill="none" stroke="black" d="M1326,-122.24C1326,-137.57 1326,-157 1326,-157 1326,-157 1178.72,-157 1178.72,-157"/>
<polygon fill="black" stroke="black" points="1178.72,-153.5 1168.72,-157 1178.72,-160.5 1178.72,-153.5"/>
</g>
<!-- EtudiantPipe -->
<g id="node7" class="node">
<title>EtudiantPipe</title>
<polygon fill="#ffffb3" stroke="black" points="1243.33,-122 1154.67,-122 1154.67,-86 1243.33,-86 1243.33,-122"/>
<text text-anchor="middle" x="1199" y="-99.8" font-family="Times,serif" font-size="14.00">EtudiantPipe</text>
</g>
<!-- EtudiantPipe&#45;&gt;AppModule -->
<g id="edge7" class="edge">
<title>EtudiantPipe&#45;&gt;AppModule</title>
<path fill="none" stroke="black" d="M1161.83,-122.11C1161.83,-122.11 1161.83,-140.99 1161.83,-140.99"/>
<polygon fill="black" stroke="black" points="1158.33,-140.99 1161.83,-150.99 1165.33,-140.99 1158.33,-140.99"/>
</g>
<!-- ListeEtudiantsComponent -->
<g id="node8" class="node">
<title>ListeEtudiantsComponent</title>
<polygon fill="#ffffb3" stroke="black" points="1137.21,-122 974.79,-122 974.79,-86 1137.21,-86 1137.21,-122"/>
<text text-anchor="middle" x="1056" y="-99.8" font-family="Times,serif" font-size="14.00">ListeEtudiantsComponent</text>
</g>
<!-- ListeEtudiantsComponent&#45;&gt;AppModule -->
<g id="edge8" class="edge">
<title>ListeEtudiantsComponent&#45;&gt;AppModule</title>
<path fill="none" stroke="black" d="M1111.14,-122.11C1111.14,-122.11 1111.14,-140.99 1111.14,-140.99"/>
<polygon fill="black" stroke="black" points="1107.64,-140.99 1111.14,-150.99 1114.64,-140.99 1107.64,-140.99"/>
</g>
<!-- MenuComponent -->
<g id="node9" class="node">
<title>MenuComponent</title>
<polygon fill="#ffffb3" stroke="black" points="956.99,-122 843.01,-122 843.01,-86 956.99,-86 956.99,-122"/>
<text text-anchor="middle" x="900" y="-99.8" font-family="Times,serif" font-size="14.00">MenuComponent</text>
</g>
<!-- MenuComponent&#45;&gt;AppModule -->
<g id="edge9" class="edge">
<title>MenuComponent&#45;&gt;AppModule</title>
<path fill="none" stroke="black" d="M900,-122.24C900,-137.57 900,-157 900,-157 900,-157 1075.1,-157 1075.1,-157"/>
<polygon fill="black" stroke="black" points="1075.1,-160.5 1085.1,-157 1075.1,-153.5 1075.1,-160.5"/>
</g>
<!-- PiedComponent -->
<g id="node10" class="node">
<title>PiedComponent</title>
<polygon fill="#ffffb3" stroke="black" points="825.22,-122 718.78,-122 718.78,-86 825.22,-86 825.22,-122"/>
<text text-anchor="middle" x="772" y="-99.8" font-family="Times,serif" font-size="14.00">PiedComponent</text>
</g>
<!-- PiedComponent&#45;&gt;AppModule -->
<g id="edge10" class="edge">
<title>PiedComponent&#45;&gt;AppModule</title>
<path fill="none" stroke="black" d="M772,-122.03C772,-139.06 772,-162 772,-162 772,-162 1075.23,-162 1075.23,-162"/>
<polygon fill="black" stroke="black" points="1075.23,-165.5 1085.23,-162 1075.23,-158.5 1075.23,-165.5"/>
</g>
<!-- AppComponent  -->
<g id="node13" class="node">
<title>AppComponent </title>
<polygon fill="#80b1d3" stroke="black" points="1181.44,-252 1072.56,-252 1072.56,-216 1181.44,-216 1181.44,-252"/>
<text text-anchor="middle" x="1127" y="-229.8" font-family="Times,serif" font-size="14.00">AppComponent </text>
</g>
<!-- AppModule&#45;&gt;AppComponent  -->
<g id="edge12" class="edge">
<title>AppModule&#45;&gt;AppComponent </title>
<path fill="none" stroke="black" stroke-dasharray="1,5" d="M1127,-187.11C1127,-187.11 1127,-205.99 1127,-205.99"/>
<polygon fill="black" stroke="black" points="1123.5,-205.99 1127,-215.99 1130.5,-205.99 1123.5,-205.99"/>
</g>
<!-- AppRoutingModule -->
<g id="node12" class="node">
<title>AppRoutingModule</title>
<polygon fill="#8dd3c7" stroke="black" points="152.27,-122 149.27,-126 128.27,-126 125.27,-122 23.73,-122 23.73,-86 152.27,-86 152.27,-122"/>
<text text-anchor="middle" x="88" y="-99.8" font-family="Times,serif" font-size="14.00">AppRoutingModule</text>
</g>
<!-- AppRoutingModule&#45;&gt;AppModule -->
<g id="edge11" class="edge">
<title>AppRoutingModule&#45;&gt;AppModule</title>
<path fill="none" stroke="black" d="M88,-122.09C88,-145.13 88,-182 88,-182 88,-182 1075.31,-182 1075.31,-182"/>
<polygon fill="black" stroke="black" points="1075.31,-185.5 1085.31,-182 1075.31,-178.5 1075.31,-185.5"/>
</g>
<!-- AuthInterceptor -->
<g id="node14" class="node">
<title>AuthInterceptor</title>
<ellipse fill="#fdb462" stroke="black" cx="622" cy="-104" rx="72.91" ry="18"/>
<text text-anchor="middle" x="622" y="-99.8" font-family="Times,serif" font-size="14.00">AuthInterceptor</text>
</g>
<!-- AuthInterceptor&#45;&gt;AppModule -->
<g id="edge13" class="edge">
<title>AuthInterceptor&#45;&gt;AppModule</title>
<path fill="none" stroke="black" d="M622,-122.22C622,-140.83 622,-167 622,-167 622,-167 1075.24,-167 1075.24,-167"/>
<polygon fill="black" stroke="black" points="1075.24,-170.5 1085.24,-167 1075.24,-163.5 1075.24,-170.5"/>
</g>
<!-- Erreur401Interceptor -->
<g id="node15" class="node">
<title>Erreur401Interceptor</title>
<ellipse fill="#fdb462" stroke="black" cx="439" cy="-104" rx="92.58" ry="18"/>
<text text-anchor="middle" x="439" y="-99.8" font-family="Times,serif" font-size="14.00">Erreur401Interceptor</text>
</g>
<!-- Erreur401Interceptor&#45;&gt;AppModule -->
<g id="edge14" class="edge">
<title>Erreur401Interceptor&#45;&gt;AppModule</title>
<path fill="none" stroke="black" d="M439,-122.22C439,-142.37 439,-172 439,-172 439,-172 1075.26,-172 1075.26,-172"/>
<polygon fill="black" stroke="black" points="1075.26,-175.5 1085.26,-172 1075.26,-168.5 1075.26,-175.5"/>
</g>
<!-- EtudiantsService -->
<g id="node16" class="node">
<title>EtudiantsService</title>
<ellipse fill="#fdb462" stroke="black" cx="252" cy="-104" rx="76.44" ry="18"/>
<text text-anchor="middle" x="252" y="-99.8" font-family="Times,serif" font-size="14.00">EtudiantsService</text>
</g>
<!-- EtudiantsService&#45;&gt;AppModule -->
<g id="edge15" class="edge">
<title>EtudiantsService&#45;&gt;AppModule</title>
<path fill="none" stroke="black" d="M252,-122.04C252,-143.66 252,-177 252,-177 252,-177 1075.09,-177 1075.09,-177"/>
<polygon fill="black" stroke="black" points="1075.09,-180.5 1085.09,-177 1075.09,-173.5 1075.09,-180.5"/>
</g>
</g>
</svg>
